<?xml version="1.0" ?><svg viewBox="0 0 64 64" xmlns="http://www.w3.org/2000/svg"><defs><style>.cls-1{fill:#1394f6;}.cls-2{fill:#fff;}</style></defs><title/><g data-name="filled outline" id="filled_outline"><path class="cls-1" d="M41.61,13.79a8.19,8.19,0,0,1,11.5,11.5Z"/><path class="cls-1" d="M10.89,25.29a8.19,8.19,0,0,1,11.5-11.5Z"/><circle class="cls-1" cx="32" cy="34" r="17"/><circle class="cls-2" cx="32" cy="34" r="13" transform="translate(-2.05 65.95) rotate(-89.92)"/><polygon points="39.29 42.71 31 34.41 31 26 33 26 33 33.59 40.71 41.29 39.29 42.71"/><path d="M17.35,11.06a9.19,9.19,0,0,0-6.5,15.69l13-13A9.19,9.19,0,0,0,17.35,11.06Zm-5.09,4.1A7.22,7.22,0,0,1,20.82,14l-9.77,9.77A7.21,7.21,0,0,1,12.26,15.16Z"/><path d="M53.15,13.75a9.2,9.2,0,0,0-13,0l13,13A9.19,9.19,0,0,0,53.15,13.75Zm-.2,10L43.18,14A7.19,7.19,0,0,1,53,23.72Z"/><path d="M50,34A18,18,0,0,0,33,16.05V11h3V9H28v2h3v5.05a18,18,0,0,0-8.42,33.27l-3.41,5.13,1.66,1.1,3.52-5.27a17.87,17.87,0,0,0,15.3,0l3.52,5.27,1.66-1.1-3.41-5.13A18,18,0,0,0,50,34ZM32,50A16,16,0,1,1,48,34,16,16,0,0,1,32,50Z"/></g></svg>